G04 PROTEUS GERBER X2 FILE*
%TF.GenerationSoftware,Labcenter,Proteus,8.17-SP2-Build37159*%
%TF.CreationDate,2024-06-19T11:42:43+00:00*%
%TF.FileFunction,Soldermask,Top*%
%TF.FilePolarity,Negative*%
%TF.Part,Single*%
%TF.SameCoordinates,{1fde6796-616a-48bc-91c5-d9dd16b063df}*%
%FSLAX45Y45*%
%MOMM*%
G01*
%TA.AperFunction,Material*%
%ADD20C,1.016000*%
%AMPPAD013*
4,1,36,
0.762000,0.635000,
0.762000,-0.635000,
0.759420,-0.660590,
0.752020,-0.684430,
0.740310,-0.706000,
0.724800,-0.724800,
0.706000,-0.740310,
0.684430,-0.752020,
0.660590,-0.759420,
0.635000,-0.762000,
-0.635000,-0.762000,
-0.660590,-0.759420,
-0.684430,-0.752020,
-0.706000,-0.740310,
-0.724800,-0.724800,
-0.740310,-0.706000,
-0.752020,-0.684430,
-0.759420,-0.660590,
-0.762000,-0.635000,
-0.762000,0.635000,
-0.759420,0.660590,
-0.752020,0.684430,
-0.740310,0.706000,
-0.724800,0.724800,
-0.706000,0.740310,
-0.684430,0.752020,
-0.660590,0.759420,
-0.635000,0.762000,
0.635000,0.762000,
0.660590,0.759420,
0.684430,0.752020,
0.706000,0.740310,
0.724800,0.724800,
0.740310,0.706000,
0.752020,0.684430,
0.759420,0.660590,
0.762000,0.635000,
0*%
%TA.AperFunction,Material*%
%ADD21PPAD013*%
%ADD22C,1.524000*%
%TA.AperFunction,Material*%
%ADD23C,2.032000*%
%TA.AperFunction,Material*%
%ADD24C,2.286000*%
%AMPPAD017*
4,1,36,
-1.016000,1.143000,
1.016000,1.143000,
1.041590,1.140420,
1.065430,1.133020,
1.087000,1.121310,
1.105800,1.105800,
1.121310,1.087000,
1.133020,1.065430,
1.140420,1.041590,
1.143000,1.016000,
1.143000,-1.016000,
1.140420,-1.041590,
1.133020,-1.065430,
1.121310,-1.087000,
1.105800,-1.105800,
1.087000,-1.121310,
1.065430,-1.133020,
1.041590,-1.140420,
1.016000,-1.143000,
-1.016000,-1.143000,
-1.041590,-1.140420,
-1.065430,-1.133020,
-1.087000,-1.121310,
-1.105800,-1.105800,
-1.121310,-1.087000,
-1.133020,-1.065430,
-1.140420,-1.041590,
-1.143000,-1.016000,
-1.143000,1.016000,
-1.140420,1.041590,
-1.133020,1.065430,
-1.121310,1.087000,
-1.105800,1.105800,
-1.087000,1.121310,
-1.065430,1.133020,
-1.041590,1.140420,
-1.016000,1.143000,
0*%
%TA.AperFunction,Material*%
%ADD25PPAD017*%
%ADD26C,1.651000*%
%TA.AperFunction,Profile*%
%ADD18C,0.101600*%
%TD.AperFunction*%
D20*
X+90000Y+200000D03*
X-1032234Y+1603946D03*
X-2311610Y-267130D03*
X-2590000Y-10000D03*
X-2925622Y+2003288D03*
X-2446951Y+2916359D03*
X-1503445Y+3212416D03*
D21*
X-1841000Y+2770000D03*
D22*
X-1841000Y+2516000D03*
X-1841000Y+2262000D03*
X-1841000Y+2008000D03*
X-1079000Y+2008000D03*
X-1079000Y+2262000D03*
X-1079000Y+2516000D03*
X-1079000Y+2770000D03*
D23*
X-1780000Y+3592000D03*
X-1780000Y+3846000D03*
X-2490000Y+3848000D03*
X-2490000Y+3594000D03*
X+230000Y+2850000D03*
X+1246000Y+2850000D03*
D24*
X+476000Y+3490000D03*
X+984000Y+3490000D03*
X+730000Y+3490000D03*
D21*
X-1029000Y-780000D03*
D22*
X-1029000Y-526000D03*
X-1029000Y-272000D03*
X-1029000Y-18000D03*
X-1029000Y+236000D03*
X-1029000Y+490000D03*
X-1029000Y+744000D03*
X-1029000Y+998000D03*
X-1791000Y+998000D03*
X-1791000Y+744000D03*
X-1791000Y+490000D03*
X-1791000Y+236000D03*
X-1791000Y-18000D03*
X-1791000Y-272000D03*
X-1791000Y-526000D03*
X-1791000Y-780000D03*
D23*
X+260000Y+2070000D03*
X+1276000Y+2070000D03*
X+260000Y+1360000D03*
X+1276000Y+1360000D03*
X+260000Y+810000D03*
X+1276000Y+810000D03*
X+260000Y+320000D03*
X+1276000Y+320000D03*
X+260000Y-310000D03*
X+1276000Y-310000D03*
X+260000Y-800000D03*
X+1276000Y-800000D03*
X+260000Y-1310000D03*
X+1276000Y-1310000D03*
X+260000Y-2000000D03*
X+1276000Y-2000000D03*
X+260000Y-1670000D03*
X+1276000Y-1670000D03*
X+260000Y-2490000D03*
X+1276000Y-2490000D03*
D25*
X+2950000Y+3200000D03*
X+3204000Y+3200000D03*
X+2950000Y+2310000D03*
X+3204000Y+2310000D03*
X+2950000Y+1420000D03*
X+3204000Y+1420000D03*
X+2950000Y+620000D03*
X+3204000Y+620000D03*
X+2950000Y-150000D03*
X+3204000Y-150000D03*
X+2950000Y-950000D03*
X+3204000Y-950000D03*
X+2950000Y-1800000D03*
X+3204000Y-1800000D03*
X+2950000Y-2550000D03*
X+3204000Y-2550000D03*
X+2950000Y-3410000D03*
X+3204000Y-3410000D03*
X+2950000Y-4210000D03*
X+3204000Y-4210000D03*
D26*
X-960000Y+3700000D03*
X-760000Y+3700000D03*
D18*
X-4520000Y-5940000D02*
X+5370000Y-5940000D01*
X+5370000Y+4410000D01*
X-4520000Y+4410000D01*
X-4520000Y-5940000D01*
M02*
