G04 PROTEUS GERBER X2 FILE*
%TF.GenerationSoftware,Labcenter,Proteus,8.17-SP2-Build37159*%
%TF.CreationDate,2024-06-19T11:42:43+00:00*%
%TF.FileFunction,Plated,1,2,PTH*%
%TF.FilePolarity,Positive*%
%TF.Part,Single*%
%TF.SameCoordinates,{1fde6796-616a-48bc-91c5-d9dd16b063df}*%
%FSLAX45Y45*%
%MOMM*%
G01*
%TA.AperFunction,ViaDrill*%
%ADD35C,0.381000*%
%TA.AperFunction,ComponentDrill*%
%ADD36C,0.762000*%
%TA.AperFunction,ComponentDrill*%
%ADD37C,1.016000*%
%ADD38C,0.812800*%
%TD.AperFunction*%
D35*
X+90000Y+200000D03*
X-1032234Y+1603946D03*
X-2311610Y-267130D03*
X-2590000Y-10000D03*
X-2925622Y+2003288D03*
X-2446951Y+2916359D03*
X-1503445Y+3212416D03*
D36*
X-1841000Y+2770000D03*
X-1841000Y+2516000D03*
X-1841000Y+2262000D03*
X-1841000Y+2008000D03*
X-1079000Y+2008000D03*
X-1079000Y+2262000D03*
X-1079000Y+2516000D03*
X-1079000Y+2770000D03*
X-1780000Y+3592000D03*
X-1780000Y+3846000D03*
X-2490000Y+3848000D03*
X-2490000Y+3594000D03*
X+230000Y+2850000D03*
X+1246000Y+2850000D03*
X+476000Y+3490000D03*
X+984000Y+3490000D03*
X+730000Y+3490000D03*
X-1029000Y-780000D03*
X-1029000Y-526000D03*
X-1029000Y-272000D03*
X-1029000Y-18000D03*
X-1029000Y+236000D03*
X-1029000Y+490000D03*
X-1029000Y+744000D03*
X-1029000Y+998000D03*
X-1791000Y+998000D03*
X-1791000Y+744000D03*
X-1791000Y+490000D03*
X-1791000Y+236000D03*
X-1791000Y-18000D03*
X-1791000Y-272000D03*
X-1791000Y-526000D03*
X-1791000Y-780000D03*
X+260000Y+2070000D03*
X+1276000Y+2070000D03*
X+260000Y+1360000D03*
X+1276000Y+1360000D03*
X+260000Y+810000D03*
X+1276000Y+810000D03*
X+260000Y+320000D03*
X+1276000Y+320000D03*
X+260000Y-310000D03*
X+1276000Y-310000D03*
X+260000Y-800000D03*
X+1276000Y-800000D03*
X+260000Y-1310000D03*
X+1276000Y-1310000D03*
X+260000Y-2000000D03*
X+1276000Y-2000000D03*
X+260000Y-1670000D03*
X+1276000Y-1670000D03*
X+260000Y-2490000D03*
X+1276000Y-2490000D03*
D37*
X+2950000Y+3200000D03*
X+3204000Y+3200000D03*
X+2950000Y+2310000D03*
X+3204000Y+2310000D03*
X+2950000Y+1420000D03*
X+3204000Y+1420000D03*
X+2950000Y+620000D03*
X+3204000Y+620000D03*
X+2950000Y-150000D03*
X+3204000Y-150000D03*
X+2950000Y-950000D03*
X+3204000Y-950000D03*
X+2950000Y-1800000D03*
X+3204000Y-1800000D03*
X+2950000Y-2550000D03*
X+3204000Y-2550000D03*
X+2950000Y-3410000D03*
X+3204000Y-3410000D03*
X+2950000Y-4210000D03*
X+3204000Y-4210000D03*
D38*
X-960000Y+3700000D03*
X-760000Y+3700000D03*
M02*
