G04 PROTEUS GERBER X2 FILE*
%TF.GenerationSoftware,Labcenter,Proteus,8.17-SP2-Build37159*%
%TF.CreationDate,2024-06-19T11:42:43+00:00*%
%TF.FileFunction,Legend,Top*%
%TF.FilePolarity,Positive*%
%TF.Part,Single*%
%TF.SameCoordinates,{1fde6796-616a-48bc-91c5-d9dd16b063df}*%
%FSLAX45Y45*%
%MOMM*%
G01*
%TA.AperFunction,Profile*%
%ADD18C,0.101600*%
%TA.AperFunction,Material*%
%ADD19C,0.101600*%
%ADD70C,0.508000*%
%ADD71C,0.152400*%
%TD.AperFunction*%
D18*
X-4520000Y-5940000D02*
X+5370000Y-5940000D01*
X+5370000Y+4410000D01*
X-4520000Y+4410000D01*
X-4520000Y-5940000D01*
D19*
X-1333000Y+2897000D02*
X-1206000Y+2897000D01*
X-1206000Y+1881000D01*
X-1714000Y+1881000D01*
X-1714000Y+2897000D01*
X-1587000Y+2897000D01*
X-1460000Y+2770000D02*
X-1434124Y+2772436D01*
X-1410152Y+2779485D01*
X-1388562Y+2790762D01*
X-1369830Y+2805878D01*
X-1354431Y+2824446D01*
X-1342842Y+2846081D01*
X-1335540Y+2870394D01*
X-1333000Y+2897000D01*
X-1460000Y+2770000D02*
X-1486606Y+2772436D01*
X-1510919Y+2779485D01*
X-1532554Y+2790762D01*
X-1551122Y+2805878D01*
X-1566238Y+2824446D01*
X-1577515Y+2846081D01*
X-1584564Y+2870394D01*
X-1587000Y+2897000D01*
X-1566680Y+3003680D02*
X-1566680Y+2940180D01*
X-1553345Y+2927480D01*
X-1500005Y+2927480D01*
X-1486670Y+2940180D01*
X-1486670Y+3003680D01*
X-1433330Y+2978280D02*
X-1406660Y+3003680D01*
X-1406660Y+2927480D01*
X-1780000Y+3465000D02*
X-1805876Y+3470080D01*
X-1829848Y+3484685D01*
X-1851438Y+3507862D01*
X-1870170Y+3538660D01*
X-1885569Y+3576125D01*
X-1897158Y+3619305D01*
X-1904460Y+3667248D01*
X-1907000Y+3719000D01*
X-1780000Y+3973000D02*
X-1805876Y+3967920D01*
X-1829848Y+3953315D01*
X-1851438Y+3930138D01*
X-1870170Y+3899340D01*
X-1885569Y+3861875D01*
X-1897158Y+3818695D01*
X-1904460Y+3770752D01*
X-1907000Y+3719000D01*
X-1780000Y+3465000D02*
X-1754124Y+3470080D01*
X-1730152Y+3484685D01*
X-1708562Y+3507862D01*
X-1689830Y+3538660D01*
X-1674431Y+3576125D01*
X-1662842Y+3619305D01*
X-1655540Y+3667248D01*
X-1653000Y+3719000D01*
X-1780000Y+3973000D02*
X-1754124Y+3967920D01*
X-1730152Y+3953315D01*
X-1708562Y+3930138D01*
X-1689830Y+3899340D01*
X-1674431Y+3861875D01*
X-1662842Y+3818695D01*
X-1655540Y+3770752D01*
X-1653000Y+3719000D01*
X-1950180Y+3692330D02*
X-1937480Y+3678995D01*
X-1937480Y+3638990D01*
X-1962880Y+3612320D01*
X-1988280Y+3612320D01*
X-2013680Y+3638990D01*
X-2013680Y+3678995D01*
X-2000980Y+3692330D01*
X-1988280Y+3745670D02*
X-2013680Y+3772340D01*
X-1937480Y+3772340D01*
X-2490000Y+3975000D02*
X-2464124Y+3969920D01*
X-2440152Y+3955315D01*
X-2418562Y+3932138D01*
X-2399830Y+3901340D01*
X-2384431Y+3863875D01*
X-2372842Y+3820695D01*
X-2365540Y+3772752D01*
X-2363000Y+3721000D01*
X-2490000Y+3467000D02*
X-2464124Y+3472080D01*
X-2440152Y+3486685D01*
X-2418562Y+3509862D01*
X-2399830Y+3540660D01*
X-2384431Y+3578125D01*
X-2372842Y+3621305D01*
X-2365540Y+3669248D01*
X-2363000Y+3721000D01*
X-2490000Y+3975000D02*
X-2515876Y+3969920D01*
X-2539848Y+3955315D01*
X-2561438Y+3932138D01*
X-2580170Y+3901340D01*
X-2595569Y+3863875D01*
X-2607158Y+3820695D01*
X-2614460Y+3772752D01*
X-2617000Y+3721000D01*
X-2490000Y+3467000D02*
X-2515876Y+3472080D01*
X-2539848Y+3486685D01*
X-2561438Y+3509862D01*
X-2580170Y+3540660D01*
X-2595569Y+3578125D01*
X-2607158Y+3621305D01*
X-2614460Y+3669248D01*
X-2617000Y+3721000D01*
X-2269020Y+3694330D02*
X-2256320Y+3680995D01*
X-2256320Y+3640990D01*
X-2281720Y+3614320D01*
X-2307120Y+3614320D01*
X-2332520Y+3640990D01*
X-2332520Y+3680995D01*
X-2319820Y+3694330D01*
X-2319820Y+3734335D02*
X-2332520Y+3747670D01*
X-2332520Y+3787675D01*
X-2319820Y+3801010D01*
X-2307120Y+3801010D01*
X-2294420Y+3787675D01*
X-2294420Y+3747670D01*
X-2281720Y+3734335D01*
X-2256320Y+3734335D01*
X-2256320Y+3801010D01*
X+357000Y+2850000D02*
X+484000Y+2850000D01*
X+484000Y+2786500D02*
X+992000Y+2786500D01*
X+992000Y+2913500D01*
X+484000Y+2913500D01*
X+484000Y+2786500D01*
X+992000Y+2850000D02*
X+1119000Y+2850000D01*
X+631320Y+2943980D02*
X+631320Y+3020180D01*
X+697995Y+3020180D01*
X+711330Y+3007480D01*
X+711330Y+2994780D01*
X+697995Y+2982080D01*
X+631320Y+2982080D01*
X+697995Y+2982080D02*
X+711330Y+2969380D01*
X+711330Y+2943980D01*
X+764670Y+2994780D02*
X+791340Y+3020180D01*
X+791340Y+2943980D01*
X+285500Y+3299500D02*
X+1174500Y+3299500D01*
X+1174500Y+3680500D01*
X+285500Y+3680500D01*
X+285500Y+3299500D01*
X+501400Y+3553500D02*
X+501098Y+3560822D01*
X+498643Y+3575467D01*
X+493511Y+3590112D01*
X+485136Y+3604757D01*
X+472322Y+3619261D01*
X+457677Y+3630065D01*
X+443032Y+3636993D01*
X+428387Y+3640969D01*
X+413742Y+3642391D01*
X+412500Y+3642400D01*
X+323600Y+3553500D02*
X+323902Y+3560822D01*
X+326357Y+3575467D01*
X+331489Y+3590112D01*
X+339864Y+3604757D01*
X+352678Y+3619261D01*
X+367323Y+3630065D01*
X+381968Y+3636993D01*
X+396613Y+3640969D01*
X+411258Y+3642391D01*
X+412500Y+3642400D01*
X+323600Y+3553500D02*
X+323902Y+3546178D01*
X+326357Y+3531533D01*
X+331489Y+3516888D01*
X+339864Y+3502243D01*
X+352678Y+3487739D01*
X+367323Y+3476935D01*
X+381968Y+3470007D01*
X+396613Y+3466031D01*
X+411258Y+3464609D01*
X+412500Y+3464600D01*
X+501400Y+3553500D02*
X+501098Y+3546178D01*
X+498643Y+3531533D01*
X+493511Y+3516888D01*
X+485136Y+3502243D01*
X+472322Y+3487739D01*
X+457677Y+3476935D01*
X+443032Y+3470007D01*
X+428387Y+3466031D01*
X+413742Y+3464609D01*
X+412500Y+3464600D01*
X+349000Y+3490000D02*
X+476000Y+3617000D01*
X+569980Y+3710980D02*
X+569980Y+3787180D01*
X+636655Y+3787180D01*
X+649990Y+3774480D01*
X+649990Y+3761780D01*
X+636655Y+3749080D01*
X+569980Y+3749080D01*
X+636655Y+3749080D02*
X+649990Y+3736380D01*
X+649990Y+3710980D01*
X+676660Y+3787180D02*
X+676660Y+3749080D01*
X+716665Y+3710980D01*
X+756670Y+3749080D01*
X+756670Y+3787180D01*
X+810010Y+3761780D02*
X+836680Y+3787180D01*
X+836680Y+3710980D01*
X-1156000Y-907000D02*
X-1283000Y-907000D01*
X-1410000Y-780000D02*
X-1435876Y-782436D01*
X-1459848Y-789485D01*
X-1481438Y-800762D01*
X-1500170Y-815878D01*
X-1515569Y-834446D01*
X-1527158Y-856081D01*
X-1534460Y-880394D01*
X-1537000Y-907000D01*
X-1410000Y-780000D02*
X-1383394Y-782436D01*
X-1359081Y-789485D01*
X-1337446Y-800762D01*
X-1318878Y-815878D01*
X-1303762Y-834446D01*
X-1292485Y-856081D01*
X-1285436Y-880394D01*
X-1283000Y-907000D01*
X-1537000Y-907000D02*
X-1664000Y-907000D01*
X-1156000Y+1125000D02*
X-1664000Y+1125000D01*
X-1156000Y-907000D02*
X-1156000Y+1125000D01*
X-1664000Y+1125000D02*
X-1664000Y-907000D01*
X-1516680Y-937480D02*
X-1516680Y-1000980D01*
X-1503345Y-1013680D01*
X-1450005Y-1013680D01*
X-1436670Y-1000980D01*
X-1436670Y-937480D01*
X-1396665Y-950180D02*
X-1383330Y-937480D01*
X-1343325Y-937480D01*
X-1329990Y-950180D01*
X-1329990Y-962880D01*
X-1343325Y-975580D01*
X-1383330Y-975580D01*
X-1396665Y-988280D01*
X-1396665Y-1013680D01*
X-1329990Y-1013680D01*
X+387000Y+2070000D02*
X+514000Y+2070000D01*
X+514000Y+2006500D02*
X+1022000Y+2006500D01*
X+1022000Y+2133500D01*
X+514000Y+2133500D01*
X+514000Y+2006500D01*
X+1022000Y+2070000D02*
X+1149000Y+2070000D01*
X+661320Y+2163980D02*
X+661320Y+2240180D01*
X+727995Y+2240180D01*
X+741330Y+2227480D01*
X+741330Y+2214780D01*
X+727995Y+2202080D01*
X+661320Y+2202080D01*
X+727995Y+2202080D02*
X+741330Y+2189380D01*
X+741330Y+2163980D01*
X+781335Y+2227480D02*
X+794670Y+2240180D01*
X+834675Y+2240180D01*
X+848010Y+2227480D01*
X+848010Y+2214780D01*
X+834675Y+2202080D01*
X+794670Y+2202080D01*
X+781335Y+2189380D01*
X+781335Y+2163980D01*
X+848010Y+2163980D01*
X+387000Y+1360000D02*
X+514000Y+1360000D01*
X+514000Y+1296500D02*
X+1022000Y+1296500D01*
X+1022000Y+1423500D01*
X+514000Y+1423500D01*
X+514000Y+1296500D01*
X+1022000Y+1360000D02*
X+1149000Y+1360000D01*
X+661320Y+1453980D02*
X+661320Y+1530180D01*
X+727995Y+1530180D01*
X+741330Y+1517480D01*
X+741330Y+1504780D01*
X+727995Y+1492080D01*
X+661320Y+1492080D01*
X+727995Y+1492080D02*
X+741330Y+1479380D01*
X+741330Y+1453980D01*
X+781335Y+1517480D02*
X+794670Y+1530180D01*
X+834675Y+1530180D01*
X+848010Y+1517480D01*
X+848010Y+1504780D01*
X+834675Y+1492080D01*
X+848010Y+1479380D01*
X+848010Y+1466680D01*
X+834675Y+1453980D01*
X+794670Y+1453980D01*
X+781335Y+1466680D01*
X+808005Y+1492080D02*
X+834675Y+1492080D01*
X+387000Y+810000D02*
X+514000Y+810000D01*
X+514000Y+746500D02*
X+1022000Y+746500D01*
X+1022000Y+873500D01*
X+514000Y+873500D01*
X+514000Y+746500D01*
X+1022000Y+810000D02*
X+1149000Y+810000D01*
X+661320Y+903980D02*
X+661320Y+980180D01*
X+727995Y+980180D01*
X+741330Y+967480D01*
X+741330Y+954780D01*
X+727995Y+942080D01*
X+661320Y+942080D01*
X+727995Y+942080D02*
X+741330Y+929380D01*
X+741330Y+903980D01*
X+848010Y+929380D02*
X+768000Y+929380D01*
X+821340Y+980180D01*
X+821340Y+903980D01*
X+387000Y+320000D02*
X+514000Y+320000D01*
X+514000Y+256500D02*
X+1022000Y+256500D01*
X+1022000Y+383500D01*
X+514000Y+383500D01*
X+514000Y+256500D01*
X+1022000Y+320000D02*
X+1149000Y+320000D01*
X+661320Y+413980D02*
X+661320Y+490180D01*
X+727995Y+490180D01*
X+741330Y+477480D01*
X+741330Y+464780D01*
X+727995Y+452080D01*
X+661320Y+452080D01*
X+727995Y+452080D02*
X+741330Y+439380D01*
X+741330Y+413980D01*
X+848010Y+490180D02*
X+781335Y+490180D01*
X+781335Y+464780D01*
X+834675Y+464780D01*
X+848010Y+452080D01*
X+848010Y+426680D01*
X+834675Y+413980D01*
X+794670Y+413980D01*
X+781335Y+426680D01*
X+387000Y-310000D02*
X+514000Y-310000D01*
X+514000Y-373500D02*
X+1022000Y-373500D01*
X+1022000Y-246500D01*
X+514000Y-246500D01*
X+514000Y-373500D01*
X+1022000Y-310000D02*
X+1149000Y-310000D01*
X+661320Y-216020D02*
X+661320Y-139820D01*
X+727995Y-139820D01*
X+741330Y-152520D01*
X+741330Y-165220D01*
X+727995Y-177920D01*
X+661320Y-177920D01*
X+727995Y-177920D02*
X+741330Y-190620D01*
X+741330Y-216020D01*
X+848010Y-152520D02*
X+834675Y-139820D01*
X+794670Y-139820D01*
X+781335Y-152520D01*
X+781335Y-203320D01*
X+794670Y-216020D01*
X+834675Y-216020D01*
X+848010Y-203320D01*
X+848010Y-190620D01*
X+834675Y-177920D01*
X+781335Y-177920D01*
X+387000Y-800000D02*
X+514000Y-800000D01*
X+514000Y-863500D02*
X+1022000Y-863500D01*
X+1022000Y-736500D01*
X+514000Y-736500D01*
X+514000Y-863500D01*
X+1022000Y-800000D02*
X+1149000Y-800000D01*
X+661320Y-706020D02*
X+661320Y-629820D01*
X+727995Y-629820D01*
X+741330Y-642520D01*
X+741330Y-655220D01*
X+727995Y-667920D01*
X+661320Y-667920D01*
X+727995Y-667920D02*
X+741330Y-680620D01*
X+741330Y-706020D01*
X+781335Y-629820D02*
X+848010Y-629820D01*
X+848010Y-642520D01*
X+781335Y-706020D01*
X+387000Y-1310000D02*
X+514000Y-1310000D01*
X+514000Y-1373500D02*
X+1022000Y-1373500D01*
X+1022000Y-1246500D01*
X+514000Y-1246500D01*
X+514000Y-1373500D01*
X+1022000Y-1310000D02*
X+1149000Y-1310000D01*
X+661320Y-1216020D02*
X+661320Y-1139820D01*
X+727995Y-1139820D01*
X+741330Y-1152520D01*
X+741330Y-1165220D01*
X+727995Y-1177920D01*
X+661320Y-1177920D01*
X+727995Y-1177920D02*
X+741330Y-1190620D01*
X+741330Y-1216020D01*
X+794670Y-1177920D02*
X+781335Y-1165220D01*
X+781335Y-1152520D01*
X+794670Y-1139820D01*
X+834675Y-1139820D01*
X+848010Y-1152520D01*
X+848010Y-1165220D01*
X+834675Y-1177920D01*
X+794670Y-1177920D01*
X+781335Y-1190620D01*
X+781335Y-1203320D01*
X+794670Y-1216020D01*
X+834675Y-1216020D01*
X+848010Y-1203320D01*
X+848010Y-1190620D01*
X+834675Y-1177920D01*
X+387000Y-2000000D02*
X+514000Y-2000000D01*
X+514000Y-2063500D02*
X+1022000Y-2063500D01*
X+1022000Y-1936500D01*
X+514000Y-1936500D01*
X+514000Y-2063500D01*
X+1022000Y-2000000D02*
X+1149000Y-2000000D01*
X+607980Y-1906020D02*
X+607980Y-1829820D01*
X+674655Y-1829820D01*
X+687990Y-1842520D01*
X+687990Y-1855220D01*
X+674655Y-1867920D01*
X+607980Y-1867920D01*
X+674655Y-1867920D02*
X+687990Y-1880620D01*
X+687990Y-1906020D01*
X+741330Y-1855220D02*
X+768000Y-1829820D01*
X+768000Y-1906020D01*
X+821340Y-1893320D02*
X+821340Y-1842520D01*
X+834675Y-1829820D01*
X+888015Y-1829820D01*
X+901350Y-1842520D01*
X+901350Y-1893320D01*
X+888015Y-1906020D01*
X+834675Y-1906020D01*
X+821340Y-1893320D01*
X+821340Y-1906020D02*
X+901350Y-1829820D01*
X+387000Y-1670000D02*
X+514000Y-1670000D01*
X+514000Y-1733500D02*
X+1022000Y-1733500D01*
X+1022000Y-1606500D01*
X+514000Y-1606500D01*
X+514000Y-1733500D01*
X+1022000Y-1670000D02*
X+1149000Y-1670000D01*
X+661320Y-1576020D02*
X+661320Y-1499820D01*
X+727995Y-1499820D01*
X+741330Y-1512520D01*
X+741330Y-1525220D01*
X+727995Y-1537920D01*
X+661320Y-1537920D01*
X+727995Y-1537920D02*
X+741330Y-1550620D01*
X+741330Y-1576020D01*
X+848010Y-1525220D02*
X+834675Y-1537920D01*
X+794670Y-1537920D01*
X+781335Y-1525220D01*
X+781335Y-1512520D01*
X+794670Y-1499820D01*
X+834675Y-1499820D01*
X+848010Y-1512520D01*
X+848010Y-1563320D01*
X+834675Y-1576020D01*
X+794670Y-1576020D01*
X+387000Y-2490000D02*
X+514000Y-2490000D01*
X+514000Y-2553500D02*
X+1022000Y-2553500D01*
X+1022000Y-2426500D01*
X+514000Y-2426500D01*
X+514000Y-2553500D01*
X+1022000Y-2490000D02*
X+1149000Y-2490000D01*
X+607980Y-2396020D02*
X+607980Y-2319820D01*
X+674655Y-2319820D01*
X+687990Y-2332520D01*
X+687990Y-2345220D01*
X+674655Y-2357920D01*
X+607980Y-2357920D01*
X+674655Y-2357920D02*
X+687990Y-2370620D01*
X+687990Y-2396020D01*
X+741330Y-2345220D02*
X+768000Y-2319820D01*
X+768000Y-2396020D01*
X+848010Y-2345220D02*
X+874680Y-2319820D01*
X+874680Y-2396020D01*
X+3331000Y+3200000D02*
X+3330173Y+3220483D01*
X+3323455Y+3261450D01*
X+3309437Y+3302417D01*
X+3286659Y+3343384D01*
X+3251859Y+3384229D01*
X+3210892Y+3415845D01*
X+3169925Y+3436392D01*
X+3128958Y+3448629D01*
X+3087991Y+3453762D01*
X+3077000Y+3454000D01*
X+2823000Y+3200000D02*
X+2823827Y+3220483D01*
X+2830545Y+3261450D01*
X+2844563Y+3302417D01*
X+2867341Y+3343384D01*
X+2902141Y+3384229D01*
X+2943108Y+3415845D01*
X+2984075Y+3436392D01*
X+3025042Y+3448629D01*
X+3066009Y+3453762D01*
X+3077000Y+3454000D01*
X+2823000Y+3200000D02*
X+2823827Y+3179517D01*
X+2830545Y+3138550D01*
X+2844563Y+3097583D01*
X+2867341Y+3056616D01*
X+2902141Y+3015771D01*
X+2943108Y+2984155D01*
X+2984075Y+2963608D01*
X+3025042Y+2951371D01*
X+3066009Y+2946238D01*
X+3077000Y+2946000D01*
X+3331000Y+3200000D02*
X+3330173Y+3179517D01*
X+3323455Y+3138550D01*
X+3309437Y+3097583D01*
X+3286659Y+3056616D01*
X+3251859Y+3015771D01*
X+3210892Y+2984155D01*
X+3169925Y+2963608D01*
X+3128958Y+2951371D01*
X+3087991Y+2946238D01*
X+3077000Y+2946000D01*
X+2759500Y+3454000D02*
X+2886500Y+3454000D01*
X+2823000Y+3517500D02*
X+2823000Y+3390500D01*
X+2938570Y+3547980D02*
X+2938570Y+3624180D01*
X+2991910Y+3624180D01*
X+3018580Y+3598780D01*
X+3018580Y+3573380D01*
X+2991910Y+3547980D01*
X+2938570Y+3547980D01*
X+3071920Y+3598780D02*
X+3098590Y+3624180D01*
X+3098590Y+3547980D01*
X+3331000Y+2310000D02*
X+3330173Y+2330483D01*
X+3323455Y+2371450D01*
X+3309437Y+2412417D01*
X+3286659Y+2453384D01*
X+3251859Y+2494229D01*
X+3210892Y+2525845D01*
X+3169925Y+2546392D01*
X+3128958Y+2558629D01*
X+3087991Y+2563762D01*
X+3077000Y+2564000D01*
X+2823000Y+2310000D02*
X+2823827Y+2330483D01*
X+2830545Y+2371450D01*
X+2844563Y+2412417D01*
X+2867341Y+2453384D01*
X+2902141Y+2494229D01*
X+2943108Y+2525845D01*
X+2984075Y+2546392D01*
X+3025042Y+2558629D01*
X+3066009Y+2563762D01*
X+3077000Y+2564000D01*
X+2823000Y+2310000D02*
X+2823827Y+2289517D01*
X+2830545Y+2248550D01*
X+2844563Y+2207583D01*
X+2867341Y+2166616D01*
X+2902141Y+2125771D01*
X+2943108Y+2094155D01*
X+2984075Y+2073608D01*
X+3025042Y+2061371D01*
X+3066009Y+2056238D01*
X+3077000Y+2056000D01*
X+3331000Y+2310000D02*
X+3330173Y+2289517D01*
X+3323455Y+2248550D01*
X+3309437Y+2207583D01*
X+3286659Y+2166616D01*
X+3251859Y+2125771D01*
X+3210892Y+2094155D01*
X+3169925Y+2073608D01*
X+3128958Y+2061371D01*
X+3087991Y+2056238D01*
X+3077000Y+2056000D01*
X+2759500Y+2564000D02*
X+2886500Y+2564000D01*
X+2823000Y+2627500D02*
X+2823000Y+2500500D01*
X+2938570Y+2657980D02*
X+2938570Y+2734180D01*
X+2991910Y+2734180D01*
X+3018580Y+2708780D01*
X+3018580Y+2683380D01*
X+2991910Y+2657980D01*
X+2938570Y+2657980D01*
X+3058585Y+2721480D02*
X+3071920Y+2734180D01*
X+3111925Y+2734180D01*
X+3125260Y+2721480D01*
X+3125260Y+2708780D01*
X+3111925Y+2696080D01*
X+3071920Y+2696080D01*
X+3058585Y+2683380D01*
X+3058585Y+2657980D01*
X+3125260Y+2657980D01*
X+3331000Y+1420000D02*
X+3330173Y+1440483D01*
X+3323455Y+1481450D01*
X+3309437Y+1522417D01*
X+3286659Y+1563384D01*
X+3251859Y+1604229D01*
X+3210892Y+1635845D01*
X+3169925Y+1656392D01*
X+3128958Y+1668629D01*
X+3087991Y+1673762D01*
X+3077000Y+1674000D01*
X+2823000Y+1420000D02*
X+2823827Y+1440483D01*
X+2830545Y+1481450D01*
X+2844563Y+1522417D01*
X+2867341Y+1563384D01*
X+2902141Y+1604229D01*
X+2943108Y+1635845D01*
X+2984075Y+1656392D01*
X+3025042Y+1668629D01*
X+3066009Y+1673762D01*
X+3077000Y+1674000D01*
X+2823000Y+1420000D02*
X+2823827Y+1399517D01*
X+2830545Y+1358550D01*
X+2844563Y+1317583D01*
X+2867341Y+1276616D01*
X+2902141Y+1235771D01*
X+2943108Y+1204155D01*
X+2984075Y+1183608D01*
X+3025042Y+1171371D01*
X+3066009Y+1166238D01*
X+3077000Y+1166000D01*
X+3331000Y+1420000D02*
X+3330173Y+1399517D01*
X+3323455Y+1358550D01*
X+3309437Y+1317583D01*
X+3286659Y+1276616D01*
X+3251859Y+1235771D01*
X+3210892Y+1204155D01*
X+3169925Y+1183608D01*
X+3128958Y+1171371D01*
X+3087991Y+1166238D01*
X+3077000Y+1166000D01*
X+2759500Y+1674000D02*
X+2886500Y+1674000D01*
X+2823000Y+1737500D02*
X+2823000Y+1610500D01*
X+2938570Y+1767980D02*
X+2938570Y+1844180D01*
X+2991910Y+1844180D01*
X+3018580Y+1818780D01*
X+3018580Y+1793380D01*
X+2991910Y+1767980D01*
X+2938570Y+1767980D01*
X+3058585Y+1831480D02*
X+3071920Y+1844180D01*
X+3111925Y+1844180D01*
X+3125260Y+1831480D01*
X+3125260Y+1818780D01*
X+3111925Y+1806080D01*
X+3125260Y+1793380D01*
X+3125260Y+1780680D01*
X+3111925Y+1767980D01*
X+3071920Y+1767980D01*
X+3058585Y+1780680D01*
X+3085255Y+1806080D02*
X+3111925Y+1806080D01*
X+3331000Y+620000D02*
X+3330173Y+640483D01*
X+3323455Y+681450D01*
X+3309437Y+722417D01*
X+3286659Y+763384D01*
X+3251859Y+804229D01*
X+3210892Y+835845D01*
X+3169925Y+856392D01*
X+3128958Y+868629D01*
X+3087991Y+873762D01*
X+3077000Y+874000D01*
X+2823000Y+620000D02*
X+2823827Y+640483D01*
X+2830545Y+681450D01*
X+2844563Y+722417D01*
X+2867341Y+763384D01*
X+2902141Y+804229D01*
X+2943108Y+835845D01*
X+2984075Y+856392D01*
X+3025042Y+868629D01*
X+3066009Y+873762D01*
X+3077000Y+874000D01*
X+2823000Y+620000D02*
X+2823827Y+599517D01*
X+2830545Y+558550D01*
X+2844563Y+517583D01*
X+2867341Y+476616D01*
X+2902141Y+435771D01*
X+2943108Y+404155D01*
X+2984075Y+383608D01*
X+3025042Y+371371D01*
X+3066009Y+366238D01*
X+3077000Y+366000D01*
X+3331000Y+620000D02*
X+3330173Y+599517D01*
X+3323455Y+558550D01*
X+3309437Y+517583D01*
X+3286659Y+476616D01*
X+3251859Y+435771D01*
X+3210892Y+404155D01*
X+3169925Y+383608D01*
X+3128958Y+371371D01*
X+3087991Y+366238D01*
X+3077000Y+366000D01*
X+2759500Y+874000D02*
X+2886500Y+874000D01*
X+2823000Y+937500D02*
X+2823000Y+810500D01*
X+2938570Y+967980D02*
X+2938570Y+1044180D01*
X+2991910Y+1044180D01*
X+3018580Y+1018780D01*
X+3018580Y+993380D01*
X+2991910Y+967980D01*
X+2938570Y+967980D01*
X+3125260Y+993380D02*
X+3045250Y+993380D01*
X+3098590Y+1044180D01*
X+3098590Y+967980D01*
X+3331000Y-150000D02*
X+3330173Y-129517D01*
X+3323455Y-88550D01*
X+3309437Y-47583D01*
X+3286659Y-6616D01*
X+3251859Y+34229D01*
X+3210892Y+65845D01*
X+3169925Y+86392D01*
X+3128958Y+98629D01*
X+3087991Y+103762D01*
X+3077000Y+104000D01*
X+2823000Y-150000D02*
X+2823827Y-129517D01*
X+2830545Y-88550D01*
X+2844563Y-47583D01*
X+2867341Y-6616D01*
X+2902141Y+34229D01*
X+2943108Y+65845D01*
X+2984075Y+86392D01*
X+3025042Y+98629D01*
X+3066009Y+103762D01*
X+3077000Y+104000D01*
X+2823000Y-150000D02*
X+2823827Y-170483D01*
X+2830545Y-211450D01*
X+2844563Y-252417D01*
X+2867341Y-293384D01*
X+2902141Y-334229D01*
X+2943108Y-365845D01*
X+2984075Y-386392D01*
X+3025042Y-398629D01*
X+3066009Y-403762D01*
X+3077000Y-404000D01*
X+3331000Y-150000D02*
X+3330173Y-170483D01*
X+3323455Y-211450D01*
X+3309437Y-252417D01*
X+3286659Y-293384D01*
X+3251859Y-334229D01*
X+3210892Y-365845D01*
X+3169925Y-386392D01*
X+3128958Y-398629D01*
X+3087991Y-403762D01*
X+3077000Y-404000D01*
X+2759500Y+104000D02*
X+2886500Y+104000D01*
X+2823000Y+167500D02*
X+2823000Y+40500D01*
X+2938570Y+197980D02*
X+2938570Y+274180D01*
X+2991910Y+274180D01*
X+3018580Y+248780D01*
X+3018580Y+223380D01*
X+2991910Y+197980D01*
X+2938570Y+197980D01*
X+3125260Y+274180D02*
X+3058585Y+274180D01*
X+3058585Y+248780D01*
X+3111925Y+248780D01*
X+3125260Y+236080D01*
X+3125260Y+210680D01*
X+3111925Y+197980D01*
X+3071920Y+197980D01*
X+3058585Y+210680D01*
X+3331000Y-950000D02*
X+3330173Y-929517D01*
X+3323455Y-888550D01*
X+3309437Y-847583D01*
X+3286659Y-806616D01*
X+3251859Y-765771D01*
X+3210892Y-734155D01*
X+3169925Y-713608D01*
X+3128958Y-701371D01*
X+3087991Y-696238D01*
X+3077000Y-696000D01*
X+2823000Y-950000D02*
X+2823827Y-929517D01*
X+2830545Y-888550D01*
X+2844563Y-847583D01*
X+2867341Y-806616D01*
X+2902141Y-765771D01*
X+2943108Y-734155D01*
X+2984075Y-713608D01*
X+3025042Y-701371D01*
X+3066009Y-696238D01*
X+3077000Y-696000D01*
X+2823000Y-950000D02*
X+2823827Y-970483D01*
X+2830545Y-1011450D01*
X+2844563Y-1052417D01*
X+2867341Y-1093384D01*
X+2902141Y-1134229D01*
X+2943108Y-1165845D01*
X+2984075Y-1186392D01*
X+3025042Y-1198629D01*
X+3066009Y-1203762D01*
X+3077000Y-1204000D01*
X+3331000Y-950000D02*
X+3330173Y-970483D01*
X+3323455Y-1011450D01*
X+3309437Y-1052417D01*
X+3286659Y-1093384D01*
X+3251859Y-1134229D01*
X+3210892Y-1165845D01*
X+3169925Y-1186392D01*
X+3128958Y-1198629D01*
X+3087991Y-1203762D01*
X+3077000Y-1204000D01*
X+2759500Y-696000D02*
X+2886500Y-696000D01*
X+2823000Y-632500D02*
X+2823000Y-759500D01*
X+2938570Y-602020D02*
X+2938570Y-525820D01*
X+2991910Y-525820D01*
X+3018580Y-551220D01*
X+3018580Y-576620D01*
X+2991910Y-602020D01*
X+2938570Y-602020D01*
X+3125260Y-538520D02*
X+3111925Y-525820D01*
X+3071920Y-525820D01*
X+3058585Y-538520D01*
X+3058585Y-589320D01*
X+3071920Y-602020D01*
X+3111925Y-602020D01*
X+3125260Y-589320D01*
X+3125260Y-576620D01*
X+3111925Y-563920D01*
X+3058585Y-563920D01*
X+3331000Y-1800000D02*
X+3330173Y-1779517D01*
X+3323455Y-1738550D01*
X+3309437Y-1697583D01*
X+3286659Y-1656616D01*
X+3251859Y-1615771D01*
X+3210892Y-1584155D01*
X+3169925Y-1563608D01*
X+3128958Y-1551371D01*
X+3087991Y-1546238D01*
X+3077000Y-1546000D01*
X+2823000Y-1800000D02*
X+2823827Y-1779517D01*
X+2830545Y-1738550D01*
X+2844563Y-1697583D01*
X+2867341Y-1656616D01*
X+2902141Y-1615771D01*
X+2943108Y-1584155D01*
X+2984075Y-1563608D01*
X+3025042Y-1551371D01*
X+3066009Y-1546238D01*
X+3077000Y-1546000D01*
X+2823000Y-1800000D02*
X+2823827Y-1820483D01*
X+2830545Y-1861450D01*
X+2844563Y-1902417D01*
X+2867341Y-1943384D01*
X+2902141Y-1984229D01*
X+2943108Y-2015845D01*
X+2984075Y-2036392D01*
X+3025042Y-2048629D01*
X+3066009Y-2053762D01*
X+3077000Y-2054000D01*
X+3331000Y-1800000D02*
X+3330173Y-1820483D01*
X+3323455Y-1861450D01*
X+3309437Y-1902417D01*
X+3286659Y-1943384D01*
X+3251859Y-1984229D01*
X+3210892Y-2015845D01*
X+3169925Y-2036392D01*
X+3128958Y-2048629D01*
X+3087991Y-2053762D01*
X+3077000Y-2054000D01*
X+2759500Y-1546000D02*
X+2886500Y-1546000D01*
X+2823000Y-1482500D02*
X+2823000Y-1609500D01*
X+2938570Y-1452020D02*
X+2938570Y-1375820D01*
X+2991910Y-1375820D01*
X+3018580Y-1401220D01*
X+3018580Y-1426620D01*
X+2991910Y-1452020D01*
X+2938570Y-1452020D01*
X+3058585Y-1375820D02*
X+3125260Y-1375820D01*
X+3125260Y-1388520D01*
X+3058585Y-1452020D01*
X+3331000Y-2550000D02*
X+3330173Y-2529517D01*
X+3323455Y-2488550D01*
X+3309437Y-2447583D01*
X+3286659Y-2406616D01*
X+3251859Y-2365771D01*
X+3210892Y-2334155D01*
X+3169925Y-2313608D01*
X+3128958Y-2301371D01*
X+3087991Y-2296238D01*
X+3077000Y-2296000D01*
X+2823000Y-2550000D02*
X+2823827Y-2529517D01*
X+2830545Y-2488550D01*
X+2844563Y-2447583D01*
X+2867341Y-2406616D01*
X+2902141Y-2365771D01*
X+2943108Y-2334155D01*
X+2984075Y-2313608D01*
X+3025042Y-2301371D01*
X+3066009Y-2296238D01*
X+3077000Y-2296000D01*
X+2823000Y-2550000D02*
X+2823827Y-2570483D01*
X+2830545Y-2611450D01*
X+2844563Y-2652417D01*
X+2867341Y-2693384D01*
X+2902141Y-2734229D01*
X+2943108Y-2765845D01*
X+2984075Y-2786392D01*
X+3025042Y-2798629D01*
X+3066009Y-2803762D01*
X+3077000Y-2804000D01*
X+3331000Y-2550000D02*
X+3330173Y-2570483D01*
X+3323455Y-2611450D01*
X+3309437Y-2652417D01*
X+3286659Y-2693384D01*
X+3251859Y-2734229D01*
X+3210892Y-2765845D01*
X+3169925Y-2786392D01*
X+3128958Y-2798629D01*
X+3087991Y-2803762D01*
X+3077000Y-2804000D01*
X+2759500Y-2296000D02*
X+2886500Y-2296000D01*
X+2823000Y-2232500D02*
X+2823000Y-2359500D01*
X+2938570Y-2202020D02*
X+2938570Y-2125820D01*
X+2991910Y-2125820D01*
X+3018580Y-2151220D01*
X+3018580Y-2176620D01*
X+2991910Y-2202020D01*
X+2938570Y-2202020D01*
X+3071920Y-2163920D02*
X+3058585Y-2151220D01*
X+3058585Y-2138520D01*
X+3071920Y-2125820D01*
X+3111925Y-2125820D01*
X+3125260Y-2138520D01*
X+3125260Y-2151220D01*
X+3111925Y-2163920D01*
X+3071920Y-2163920D01*
X+3058585Y-2176620D01*
X+3058585Y-2189320D01*
X+3071920Y-2202020D01*
X+3111925Y-2202020D01*
X+3125260Y-2189320D01*
X+3125260Y-2176620D01*
X+3111925Y-2163920D01*
X+3331000Y-3410000D02*
X+3330173Y-3389517D01*
X+3323455Y-3348550D01*
X+3309437Y-3307583D01*
X+3286659Y-3266616D01*
X+3251859Y-3225771D01*
X+3210892Y-3194155D01*
X+3169925Y-3173608D01*
X+3128958Y-3161371D01*
X+3087991Y-3156238D01*
X+3077000Y-3156000D01*
X+2823000Y-3410000D02*
X+2823827Y-3389517D01*
X+2830545Y-3348550D01*
X+2844563Y-3307583D01*
X+2867341Y-3266616D01*
X+2902141Y-3225771D01*
X+2943108Y-3194155D01*
X+2984075Y-3173608D01*
X+3025042Y-3161371D01*
X+3066009Y-3156238D01*
X+3077000Y-3156000D01*
X+2823000Y-3410000D02*
X+2823827Y-3430483D01*
X+2830545Y-3471450D01*
X+2844563Y-3512417D01*
X+2867341Y-3553384D01*
X+2902141Y-3594229D01*
X+2943108Y-3625845D01*
X+2984075Y-3646392D01*
X+3025042Y-3658629D01*
X+3066009Y-3663762D01*
X+3077000Y-3664000D01*
X+3331000Y-3410000D02*
X+3330173Y-3430483D01*
X+3323455Y-3471450D01*
X+3309437Y-3512417D01*
X+3286659Y-3553384D01*
X+3251859Y-3594229D01*
X+3210892Y-3625845D01*
X+3169925Y-3646392D01*
X+3128958Y-3658629D01*
X+3087991Y-3663762D01*
X+3077000Y-3664000D01*
X+2759500Y-3156000D02*
X+2886500Y-3156000D01*
X+2823000Y-3092500D02*
X+2823000Y-3219500D01*
X+2938570Y-3062020D02*
X+2938570Y-2985820D01*
X+2991910Y-2985820D01*
X+3018580Y-3011220D01*
X+3018580Y-3036620D01*
X+2991910Y-3062020D01*
X+2938570Y-3062020D01*
X+3125260Y-3011220D02*
X+3111925Y-3023920D01*
X+3071920Y-3023920D01*
X+3058585Y-3011220D01*
X+3058585Y-2998520D01*
X+3071920Y-2985820D01*
X+3111925Y-2985820D01*
X+3125260Y-2998520D01*
X+3125260Y-3049320D01*
X+3111925Y-3062020D01*
X+3071920Y-3062020D01*
X+3331000Y-4210000D02*
X+3330173Y-4189517D01*
X+3323455Y-4148550D01*
X+3309437Y-4107583D01*
X+3286659Y-4066616D01*
X+3251859Y-4025771D01*
X+3210892Y-3994155D01*
X+3169925Y-3973608D01*
X+3128958Y-3961371D01*
X+3087991Y-3956238D01*
X+3077000Y-3956000D01*
X+2823000Y-4210000D02*
X+2823827Y-4189517D01*
X+2830545Y-4148550D01*
X+2844563Y-4107583D01*
X+2867341Y-4066616D01*
X+2902141Y-4025771D01*
X+2943108Y-3994155D01*
X+2984075Y-3973608D01*
X+3025042Y-3961371D01*
X+3066009Y-3956238D01*
X+3077000Y-3956000D01*
X+2823000Y-4210000D02*
X+2823827Y-4230483D01*
X+2830545Y-4271450D01*
X+2844563Y-4312417D01*
X+2867341Y-4353384D01*
X+2902141Y-4394229D01*
X+2943108Y-4425845D01*
X+2984075Y-4446392D01*
X+3025042Y-4458629D01*
X+3066009Y-4463762D01*
X+3077000Y-4464000D01*
X+3331000Y-4210000D02*
X+3330173Y-4230483D01*
X+3323455Y-4271450D01*
X+3309437Y-4312417D01*
X+3286659Y-4353384D01*
X+3251859Y-4394229D01*
X+3210892Y-4425845D01*
X+3169925Y-4446392D01*
X+3128958Y-4458629D01*
X+3087991Y-4463762D01*
X+3077000Y-4464000D01*
X+2759500Y-3956000D02*
X+2886500Y-3956000D01*
X+2823000Y-3892500D02*
X+2823000Y-4019500D01*
X+2885230Y-3862020D02*
X+2885230Y-3785820D01*
X+2938570Y-3785820D01*
X+2965240Y-3811220D01*
X+2965240Y-3836620D01*
X+2938570Y-3862020D01*
X+2885230Y-3862020D01*
X+3018580Y-3811220D02*
X+3045250Y-3785820D01*
X+3045250Y-3862020D01*
X+3098590Y-3849320D02*
X+3098590Y-3798520D01*
X+3111925Y-3785820D01*
X+3165265Y-3785820D01*
X+3178600Y-3798520D01*
X+3178600Y-3849320D01*
X+3165265Y-3862020D01*
X+3111925Y-3862020D01*
X+3098590Y-3849320D01*
X+3098590Y-3862020D02*
X+3178600Y-3785820D01*
D70*
X-921900Y+3509500D02*
X-922031Y+3512658D01*
X-923097Y+3518976D01*
X-925328Y+3525294D01*
X-928973Y+3531612D01*
X-934548Y+3537851D01*
X-940866Y+3542447D01*
X-947184Y+3545380D01*
X-953502Y+3547042D01*
X-959820Y+3547600D01*
X-960000Y+3547600D01*
X-998100Y+3509500D02*
X-997969Y+3512658D01*
X-996903Y+3518976D01*
X-994672Y+3525294D01*
X-991027Y+3531612D01*
X-985452Y+3537851D01*
X-979134Y+3542447D01*
X-972816Y+3545380D01*
X-966498Y+3547042D01*
X-960180Y+3547600D01*
X-960000Y+3547600D01*
X-998100Y+3509500D02*
X-997969Y+3506342D01*
X-996903Y+3500024D01*
X-994672Y+3493706D01*
X-991027Y+3487388D01*
X-985452Y+3481149D01*
X-979134Y+3476553D01*
X-972816Y+3473620D01*
X-966498Y+3471958D01*
X-960180Y+3471400D01*
X-960000Y+3471400D01*
X-921900Y+3509500D02*
X-922031Y+3506342D01*
X-923097Y+3500024D01*
X-925328Y+3493706D01*
X-928973Y+3487388D01*
X-934548Y+3481149D01*
X-940866Y+3476553D01*
X-947184Y+3473620D01*
X-953502Y+3471958D01*
X-959820Y+3471400D01*
X-960000Y+3471400D01*
D71*
X-1108920Y+3599340D02*
X-982407Y+3599340D01*
X-611080Y+3599340D02*
X-611080Y+3800000D01*
X-734809Y+3800000D01*
X-1108920Y+3800000D02*
X-1108920Y+3599340D01*
X-737593Y+3599340D02*
X-611080Y+3599340D01*
X-785191Y+3800000D02*
X-934809Y+3800000D01*
X-985191Y+3800000D02*
X-1108920Y+3800000D01*
X-937593Y+3599340D02*
X-782407Y+3599340D01*
D19*
X-966680Y+3909220D02*
X-966680Y+3871120D01*
X-926675Y+3833020D01*
X-886670Y+3871120D01*
X-886670Y+3909220D01*
X-833330Y+3883820D02*
X-806660Y+3909220D01*
X-806660Y+3833020D01*
M02*
