G04 PROTEUS GERBER X2 FILE*
%TF.GenerationSoftware,Labcenter,Proteus,8.17-SP2-Build37159*%
%TF.CreationDate,2024-06-19T11:42:43+00:00*%
%TF.FileFunction,Copper,L2,Bot*%
%TF.FilePolarity,Positive*%
%TF.Part,Single*%
%TF.SameCoordinates,{1fde6796-616a-48bc-91c5-d9dd16b063df}*%
%FSLAX45Y45*%
%MOMM*%
G01*
%TA.AperFunction,Conductor*%
%ADD10C,1.016000*%
%TA.AperFunction,ViaPad*%
%ADD11C,0.762000*%
%TA.AperFunction,ComponentPad*%
%ADD12R,1.270000X1.270000*%
%ADD13C,1.270000*%
%TA.AperFunction,ComponentPad*%
%ADD14C,1.778000*%
%TA.AperFunction,ComponentPad*%
%ADD15C,2.032000*%
%TA.AperFunction,ComponentPad*%
%ADD16R,2.032000X2.032000*%
%TA.AperFunction,WasherPad*%
%ADD17C,1.397000*%
%TA.AperFunction,Profile*%
%ADD18C,0.101600*%
%TD.AperFunction*%
D10*
X+1276000Y+2070000D02*
X+2026000Y+2820000D01*
X+2529589Y+2820000D01*
X+2570000Y+2820000D01*
X+2950000Y+3200000D01*
X+1276000Y+1360000D02*
X+2137259Y+2221259D01*
X+2861259Y+2221259D01*
X+2950000Y+2310000D01*
X+1276000Y+810000D02*
X+1527082Y+810000D01*
X+2144087Y+1427005D01*
X+2942995Y+1427005D01*
X+2950000Y+1420000D01*
X+1276000Y+320000D02*
X+1932128Y+320000D01*
X+2232785Y+620657D01*
X+2949343Y+620657D01*
X+2950000Y+620000D01*
X+1276000Y-310000D02*
X+2104444Y-310000D01*
X+2261006Y-153438D01*
X+2946562Y-153438D01*
X+2950000Y-150000D01*
X+1276000Y-800000D02*
X+2274583Y-800000D01*
X+2434370Y-959787D01*
X+2940213Y-959787D01*
X+2950000Y-950000D01*
X+1276000Y-1310000D02*
X+1885506Y-1310000D01*
X+2357768Y-1782262D01*
X+2932262Y-1782262D01*
X+2950000Y-1800000D01*
X+1276000Y-1670000D02*
X+2156000Y-2550000D01*
X+2950000Y-2550000D01*
X+1276000Y-2490000D02*
X+1276000Y-3476000D01*
X+2030000Y-4230000D01*
X+2930000Y-4230000D01*
X+2950000Y-4210000D01*
X+1276000Y-2000000D02*
X+1620000Y-2344000D01*
X+1620000Y-2890000D01*
X+2120000Y-3390000D01*
X+2930000Y-3390000D01*
X+2950000Y-3410000D01*
X+3204000Y+3200000D02*
X+3204000Y+2310000D01*
X+3204000Y+1420000D01*
X+3204000Y+620000D02*
X+3204000Y-150000D01*
X+3204000Y+1420000D02*
X+3204000Y+620000D01*
X+3204000Y-150000D02*
X+3210000Y-156000D01*
X+3210000Y-944000D01*
X+3204000Y-950000D01*
X+3235407Y-981407D01*
X+3235407Y-1768593D01*
X+3204000Y-1800000D01*
X+3241484Y-1837484D01*
X+3241484Y-2512516D01*
X+3204000Y-2550000D01*
X+3204000Y-3410000D01*
X+3204000Y-4210000D01*
X-1029000Y-18000D02*
X-568000Y-18000D01*
X+260000Y+810000D01*
X-1029000Y-780000D02*
X+240000Y-780000D01*
X+260000Y-800000D01*
X-1029000Y+236000D02*
X-1168650Y+96350D01*
X-1168650Y-1051350D01*
X-870000Y-1350000D01*
X+220000Y-1350000D01*
X+260000Y-1310000D01*
X-1029000Y+490000D02*
X-1299297Y+219703D01*
X-1299297Y-1180703D01*
X-810000Y-1670000D01*
X+260000Y-1670000D01*
X-1791000Y+490000D02*
X-1426198Y+125198D01*
X-1426198Y-1370502D01*
X-295264Y-2501436D01*
X+248564Y-2501436D01*
X+260000Y-2490000D01*
X-1029000Y+744000D02*
X-135865Y+744000D01*
X+195558Y+1075423D01*
X+459375Y+1075423D01*
X+459375Y+504843D01*
X+274532Y+320000D01*
X+260000Y+320000D01*
X-1791000Y+744000D02*
X-1485624Y+744000D01*
X-704560Y+1525064D01*
X+514936Y+1525064D01*
X+852031Y+1187969D01*
X+852031Y+242031D01*
X+300000Y-310000D01*
X+260000Y-310000D01*
X-1029000Y-526000D02*
X-344465Y-526000D01*
X+650000Y+468465D01*
X+650000Y+1110000D01*
X+400000Y+1360000D01*
X+260000Y+1360000D01*
X-1079000Y+2516000D02*
X-800180Y+2237180D01*
X+965056Y+2237180D01*
X+1246000Y+2518124D01*
X+1246000Y+2850000D01*
X-1079000Y+2770000D02*
X+160000Y+2770000D01*
X+230000Y+2840000D01*
X+230000Y+2850000D01*
X+3204000Y+3200000D02*
X+3204000Y+3501234D01*
X+2515234Y+4190000D01*
X+2067359Y+4190000D01*
X-566263Y+4190000D01*
X-584669Y+4171594D01*
X-564669Y+4171594D01*
X-564669Y+4057309D01*
X-564669Y+3895331D01*
X-760000Y+3700000D01*
X-1780000Y+3846000D02*
X-1544001Y+3846000D01*
X-1234527Y+4155474D01*
X-662834Y+4155474D01*
X-564669Y+4057309D01*
X-2490000Y+3848000D02*
X-1782000Y+3848000D01*
X-1780000Y+3846000D01*
X-2490000Y+3594000D02*
X-1805604Y+2909604D01*
X-1745072Y+2909604D01*
X-1442337Y+2606869D01*
X-1442337Y+2371337D01*
X-1079000Y+2008000D01*
X-1780000Y+3592000D02*
X-1780000Y+3123997D01*
X-1220000Y+2563997D01*
X-1220000Y+2459543D01*
X-1079000Y+2318543D01*
X-1079000Y+2262000D01*
X-1841000Y+2516000D02*
X-1191913Y+1866913D01*
X-934881Y+1866913D01*
X-877587Y+1924207D01*
X-877587Y+2060587D01*
X-878500Y+2061500D01*
X-878500Y+2075651D01*
X-1064849Y+2262000D01*
X-1079000Y+2262000D01*
X+476000Y+3490000D02*
X+656000Y+3670000D01*
X+1055829Y+3670000D01*
X+1417021Y+3308808D01*
X+1417021Y+2444401D01*
X+876452Y+1903832D01*
X-720832Y+1903832D01*
X-877587Y+2060587D01*
X-878500Y+2061500D02*
X-1079000Y+2262000D01*
X-1791000Y+998000D02*
X-2066901Y+722099D01*
X-2066901Y-1660885D01*
X-1017786Y-2710000D01*
X+276034Y-2710000D01*
X+506691Y-2479343D01*
X+506691Y-2246691D01*
X+260000Y-2000000D01*
X-1029000Y-272000D02*
X-402000Y-272000D01*
X+40000Y+170000D01*
X+94940Y+224940D01*
X+94940Y+204940D01*
X+90000Y+200000D01*
X-1890000Y+2770000D02*
X-1841000Y+2770000D01*
X-1890000Y+2770000D02*
X-1900000Y+2770000D01*
X-2860000Y+3730000D01*
X-2860000Y+3807724D01*
X-2787363Y+3880361D01*
X-2522361Y+3880361D01*
X-2490000Y+3848000D01*
X-2311610Y-267130D02*
X-2311610Y+1189025D01*
X-2204053Y+1296582D01*
X-1145031Y+1296582D01*
X-747897Y+1693716D01*
X-785128Y+1730947D01*
X-1769688Y+1730947D01*
X-2125454Y+2086713D01*
X-1968256Y+2243911D01*
X-1859089Y+2243911D01*
X-1841000Y+2262000D01*
X-2590000Y-10000D02*
X-2590000Y+1232729D01*
X-2218683Y+1604046D01*
X-2068247Y+1604046D01*
X-1032334Y+1604046D01*
X-1032234Y+1603946D01*
X-2068247Y+1604046D02*
X-2340000Y+1875799D01*
X-2340000Y+2320000D01*
X-1890000Y+2770000D01*
X-1791000Y-526000D02*
X-1731466Y-526000D01*
X-1612577Y-407111D01*
X-1612577Y-196423D01*
X-1791000Y-18000D01*
X-2925622Y+2003288D02*
X-2925622Y+2444378D01*
X-2580000Y+2790000D01*
X-2453641Y+2916359D01*
X-2446951Y+2916359D01*
X-1503445Y+3212416D02*
X-1321029Y+3030000D01*
X-1080031Y+3030000D01*
X-1080031Y+2771031D01*
X-1079000Y+2770000D01*
X-960000Y+3700000D02*
X-949146Y+3689146D01*
X-949146Y+3227003D01*
X-949146Y+3177920D01*
X-1080031Y+3047035D01*
X-1080031Y+3030000D01*
X+984000Y+3470000D02*
X+750000Y+3470000D01*
X+730000Y+3490000D01*
X+1246000Y+2850000D02*
X+1246000Y+2860000D01*
X+1264000Y+2860000D01*
X+984000Y+3140000D01*
X+984000Y+3470000D01*
X+984000Y+3490000D01*
D11*
X+90000Y+200000D03*
X-1032234Y+1603946D03*
X-2311610Y-267130D03*
X-2590000Y-10000D03*
X-2925622Y+2003288D03*
X-2446951Y+2916359D03*
X-1503445Y+3212416D03*
D12*
X-1841000Y+2770000D03*
D13*
X-1841000Y+2516000D03*
X-1841000Y+2262000D03*
X-1841000Y+2008000D03*
X-1079000Y+2008000D03*
X-1079000Y+2262000D03*
X-1079000Y+2516000D03*
X-1079000Y+2770000D03*
D14*
X-1780000Y+3592000D03*
X-1780000Y+3846000D03*
X-2490000Y+3848000D03*
X-2490000Y+3594000D03*
X+230000Y+2850000D03*
X+1246000Y+2850000D03*
D15*
X+476000Y+3490000D03*
X+984000Y+3490000D03*
X+730000Y+3490000D03*
D12*
X-1029000Y-780000D03*
D13*
X-1029000Y-526000D03*
X-1029000Y-272000D03*
X-1029000Y-18000D03*
X-1029000Y+236000D03*
X-1029000Y+490000D03*
X-1029000Y+744000D03*
X-1029000Y+998000D03*
X-1791000Y+998000D03*
X-1791000Y+744000D03*
X-1791000Y+490000D03*
X-1791000Y+236000D03*
X-1791000Y-18000D03*
X-1791000Y-272000D03*
X-1791000Y-526000D03*
X-1791000Y-780000D03*
D14*
X+260000Y+2070000D03*
X+1276000Y+2070000D03*
X+260000Y+1360000D03*
X+1276000Y+1360000D03*
X+260000Y+810000D03*
X+1276000Y+810000D03*
X+260000Y+320000D03*
X+1276000Y+320000D03*
X+260000Y-310000D03*
X+1276000Y-310000D03*
X+260000Y-800000D03*
X+1276000Y-800000D03*
X+260000Y-1310000D03*
X+1276000Y-1310000D03*
X+260000Y-2000000D03*
X+1276000Y-2000000D03*
X+260000Y-1670000D03*
X+1276000Y-1670000D03*
X+260000Y-2490000D03*
X+1276000Y-2490000D03*
D16*
X+2950000Y+3200000D03*
X+3204000Y+3200000D03*
X+2950000Y+2310000D03*
X+3204000Y+2310000D03*
X+2950000Y+1420000D03*
X+3204000Y+1420000D03*
X+2950000Y+620000D03*
X+3204000Y+620000D03*
X+2950000Y-150000D03*
X+3204000Y-150000D03*
X+2950000Y-950000D03*
X+3204000Y-950000D03*
X+2950000Y-1800000D03*
X+3204000Y-1800000D03*
X+2950000Y-2550000D03*
X+3204000Y-2550000D03*
X+2950000Y-3410000D03*
X+3204000Y-3410000D03*
X+2950000Y-4210000D03*
X+3204000Y-4210000D03*
D17*
X-960000Y+3700000D03*
X-760000Y+3700000D03*
D18*
X-4520000Y-5940000D02*
X+5370000Y-5940000D01*
X+5370000Y+4410000D01*
X-4520000Y+4410000D01*
X-4520000Y-5940000D01*
M02*
